<svg id="borders" xmlns="http://www.w3.org/2000/svg" viewBox="0 0 64 64"><defs><style>.cls-1{fill:#fff;}</style></defs><title>diceq</title><rect class="cls-1" x="1.02" y="1.02" width="61.95" height="61.95" rx="13.46" ry="13.46"/><path d="M49.21,64H14.79A14.81,14.81,0,0,1,0,49.21V14.79A14.81,14.81,0,0,1,14.79,0H49.21A14.81,14.81,0,0,1,64,14.79V49.21A14.81,14.81,0,0,1,49.21,64ZM14.79,2A12.76,12.76,0,0,0,2,14.79V49.21A12.76,12.76,0,0,0,14.79,62H49.21A12.76,12.76,0,0,0,62,49.21V14.79A12.76,12.76,0,0,0,49.21,2Z"/><path d="M24,14.69a13.59,13.59,0,0,1,7.51-2,16.18,16.18,0,0,1,9.72,2.8q3.87,2.79,3.87,8.28a9.37,9.37,0,0,1-1.68,5.67A19.26,19.26,0,0,1,39.68,33l-1.83,1.42a5.56,5.56,0,0,0-2,2.72,11.45,11.45,0,0,0-.34,3.06h-7a20.35,20.35,0,0,1,.83-6,10.67,10.67,0,0,1,3.46-3.84l1.89-1.48a6.62,6.62,0,0,0,1.5-1.53,5.22,5.22,0,0,0,1-3.13,6.06,6.06,0,0,0-1.15-3.59Q34.91,19,31.86,19a4.62,4.62,0,0,0-4.25,2,7.68,7.68,0,0,0-1.25,4.14H18.87Q19.18,17.77,24,14.69Zm4.3,29.1h7.74v7.48H28.32Z"/></svg>