<svg xmlns="http://www.w3.org/2000/svg" viewBox="0 0 64 64"><defs><style>.cls-1{fill:#b2b2b2;}</style></defs><title>dice4g</title><g id="borders"><rect class="cls-1" x="1.02" y="1.02" width="61.95" height="61.95" rx="13.46" ry="13.46"/><path d="M49.21,64H14.79A14.81,14.81,0,0,1,0,49.21V14.79A14.81,14.81,0,0,1,14.79,0H49.21A14.81,14.81,0,0,1,64,14.79V49.21A14.81,14.81,0,0,1,49.21,64ZM14.79,2A12.76,12.76,0,0,0,2,14.79V49.21A12.76,12.76,0,0,0,14.79,62H49.21A12.76,12.76,0,0,0,62,49.21V14.79A12.76,12.76,0,0,0,49.21,2Z"/></g><g id="dots"><circle cx="15.4" cy="15.4" r="5"/><circle cx="15.4" cy="48.6" r="5"/><circle cx="48.6" cy="48.6" r="5"/><circle cx="48.6" cy="15.4" r="5"/></g></svg>